<svg width="92" height="56" viewBox="0 0 92 56" fill="none" xmlns="http://www.w3.org/2000/svg">
<path d="M25.3005 27.9999C31.6413 27.9999 36.8005 22.8407 36.8005 16.4999C36.8005 10.1591 31.6413 4.9999 25.3005 4.9999C18.9597 4.9999 13.8005 10.1591 13.8005 16.4999C13.8005 22.8407 18.9597 27.9999 25.3005 27.9999ZM75.9005 9.5999H43.7005C42.4297 9.5999 41.4005 10.6292 41.4005 11.8999V32.5999H9.20049V2.6999C9.20049 1.42915 8.17124 0.399902 6.90049 0.399902H2.30049C1.02974 0.399902 0.000488281 1.42915 0.000488281 2.6999V53.2999C0.000488281 54.5707 1.02974 55.5999 2.30049 55.5999H6.90049C8.17124 55.5999 9.20049 54.5707 9.20049 53.2999V46.3999H82.8005V53.2999C82.8005 54.5707 83.8297 55.5999 85.1005 55.5999H89.7005C90.9712 55.5999 92.0005 54.5707 92.0005 53.2999V25.6999C92.0005 16.8075 84.7929 9.5999 75.9005 9.5999Z" fill="#0071DC"/>
</svg>
