<svg width="92" height="74" viewBox="0 0 92 74" fill="none" xmlns="http://www.w3.org/2000/svg">
<path d="M23 27.8001C11.3419 27.8001 1.79691 36.2095 0.0144112 47.1632C-0.100589 47.8532 0.488786 48.5001 1.20754 48.5001H44.8069C45.5257 48.5001 46.115 47.8532 46 47.1632C44.2032 36.2095 34.6582 27.8001 23 27.8001ZM44.7925 53.1001H1.20754C0.488786 53.1001 -0.100589 53.747 0.0144112 54.437C1.79691 65.3907 11.3419 73.8001 23 73.8001C34.6582 73.8001 44.2032 65.3907 45.9857 54.437C46.1007 53.747 45.5113 53.1001 44.7925 53.1001ZM85.3013 6.89884C77.1794 -1.22304 64.5725 -1.92741 55.5594 4.59884C54.9844 5.01572 54.9413 5.87822 55.4444 6.36697L85.8188 36.7557C86.3219 37.2588 87.1844 37.2157 87.5869 36.6407C94.1275 27.6276 93.4232 15.0207 85.3013 6.89884ZM52.1813 9.64446C51.6782 9.14134 50.8157 9.18447 50.4132 9.75947C43.8869 18.7726 44.5913 31.3795 52.6988 39.5013C60.8207 47.6232 73.4275 48.3276 82.4407 41.787C83.0157 41.3701 83.0588 40.5076 82.5557 40.0188L52.1813 9.64446Z" fill="#0071DC"/>
</svg>
